<?xml version="1.0" encoding="utf-8"?>
<svg xmlns="http://www.w3.org/2000/svg" xmlns:xlink="http://www.w3.org/1999/xlink" style="margin: auto; background: none; display: block; shape-rendering: auto;" width="96px" height="96px" viewBox="0 0 100 100" preserveAspectRatio="xMidYMid">
<g transform="rotate(0 50 50)">
  <rect x="47" y="24" rx="3" ry="6" width="6" height="12" fill="#f91a10">
    <animate attributeName="opacity" values="1;0" keyTimes="0;1" dur="1.5625s" begin="-1.4322916666666667s" repeatCount="indefinite"></animate>
  </rect>
</g><g transform="rotate(30 50 50)">
  <rect x="47" y="24" rx="3" ry="6" width="6" height="12" fill="#e46b43">
    <animate attributeName="opacity" values="1;0" keyTimes="0;1" dur="1.5625s" begin="-1.3020833333333335s" repeatCount="indefinite"></animate>
  </rect>
</g><g transform="rotate(60 50 50)">
  <rect x="47" y="24" rx="3" ry="6" width="6" height="12" fill="#edb195">
    <animate attributeName="opacity" values="1;0" keyTimes="0;1" dur="1.5625s" begin="-1.171875s" repeatCount="indefinite"></animate>
  </rect>
</g><g transform="rotate(90 50 50)">
  <rect x="47" y="24" rx="3" ry="6" width="6" height="12" fill="#2aa7c9">
    <animate attributeName="opacity" values="1;0" keyTimes="0;1" dur="1.5625s" begin="-1.0416666666666667s" repeatCount="indefinite"></animate>
  </rect>
</g><g transform="rotate(120 50 50)">
  <rect x="47" y="24" rx="3" ry="6" width="6" height="12" fill="#3c0f0f">
    <animate attributeName="opacity" values="1;0" keyTimes="0;1" dur="1.5625s" begin="-0.9114583333333334s" repeatCount="indefinite"></animate>
  </rect>
</g><g transform="rotate(150 50 50)">
  <rect x="47" y="24" rx="3" ry="6" width="6" height="12" fill="#06628d">
    <animate attributeName="opacity" values="1;0" keyTimes="0;1" dur="1.5625s" begin="-0.78125s" repeatCount="indefinite"></animate>
  </rect>
</g><g transform="rotate(180 50 50)">
  <rect x="47" y="24" rx="3" ry="6" width="6" height="12" fill="#04284d">
    <animate attributeName="opacity" values="1;0" keyTimes="0;1" dur="1.5625s" begin="-0.6510416666666667s" repeatCount="indefinite"></animate>
  </rect>
</g><g transform="rotate(210 50 50)">
  <rect x="47" y="24" rx="3" ry="6" width="6" height="12" fill="#f91a10">
    <animate attributeName="opacity" values="1;0" keyTimes="0;1" dur="1.5625s" begin="-0.5208333333333334s" repeatCount="indefinite"></animate>
  </rect>
</g><g transform="rotate(240 50 50)">
  <rect x="47" y="24" rx="3" ry="6" width="6" height="12" fill="#e46b43">
    <animate attributeName="opacity" values="1;0" keyTimes="0;1" dur="1.5625s" begin="-0.390625s" repeatCount="indefinite"></animate>
  </rect>
</g><g transform="rotate(270 50 50)">
  <rect x="47" y="24" rx="3" ry="6" width="6" height="12" fill="#edb195">
    <animate attributeName="opacity" values="1;0" keyTimes="0;1" dur="1.5625s" begin="-0.2604166666666667s" repeatCount="indefinite"></animate>
  </rect>
</g><g transform="rotate(300 50 50)">
  <rect x="47" y="24" rx="3" ry="6" width="6" height="12" fill="#2aa7c9">
    <animate attributeName="opacity" values="1;0" keyTimes="0;1" dur="1.5625s" begin="-0.13020833333333334s" repeatCount="indefinite"></animate>
  </rect>
</g><g transform="rotate(330 50 50)">
  <rect x="47" y="24" rx="3" ry="6" width="6" height="12" fill="#3c0f0f">
    <animate attributeName="opacity" values="1;0" keyTimes="0;1" dur="1.5625s" begin="0s" repeatCount="indefinite"></animate>
  </rect>
</g>
<!-- [ldio] generated by https://loading.io/ --></svg>